<svg width="32" height="32" xmlns="http://www.w3.org/2000/svg"><circle cx="16" cy="16" r="16" fill="#E9E9E9"/><path d="M17.5 19.969c0 1.256-.003 2.509.003 3.765 0 .138-.037.175-.175.172a271.427 271.427 0 00-3.203 0c-.147 0-.194-.034-.194-.187.007-2.491.003-4.979.003-7.47 0-.25.029-.218-.228-.221-.453 0-.906-.003-1.36.003-.108 0-.14-.034-.14-.144.003-.79.003-1.584 0-2.375 0-.109.032-.143.14-.14.476.006.948-.003 1.423.006.128.003.168-.031.168-.166-.006-.665 0-1.334-.003-2-.003-.553.082-1.087.36-1.575.3-.53.75-.896 1.306-1.134.469-.2.963-.294 1.469-.322 1.003-.056 2.01-.01 3.012-.028.113-.003.14.038.14.144-.002.822-.002 1.647 0 2.468 0 .125-.046.144-.155.144-.578-.003-1.157-.003-1.735-.003-.481 0-.828.347-.828.822 0 .49.006.978-.003 1.469-.003.14.044.175.178.175.79-.006 1.584 0 2.375-.006.131 0 .175.037.16.168-.047.403-.088.806-.132 1.21-.04.387-.11.771-.172 1.156-.018.11-.053.134-.153.134-.678-.003-1.353-.003-2.031 0-.266 0-.228-.034-.228.235.003 1.23.003 2.465.003 3.7z"/></svg>