<svg width="32" height="32" xmlns="http://www.w3.org/2000/svg"><circle cx="16" cy="16" r="16" fill="#E9E9E9"/><path d="M9.103 21.346c1.64.15 3.108-.26 4.438-1.257-.205-.047-.393-.047-.571-.09-1.046-.25-1.77-.88-2.195-1.861-.02-.05-.073-.111-.026-.161.035-.038.103-.006.152 0 .37.038.739.026 1.102-.059.006-.064-.041-.058-.076-.07-.9-.24-1.553-.776-1.975-1.605a2.795 2.795 0 01-.31-1.207c-.006-.168.003-.17.158-.097.369.176.756.275 1.198.296-.202-.164-.384-.308-.539-.48a3.038 3.038 0 01-.791-1.844 3.124 3.124 0 01.325-1.625c.056-.115.106-.106.176-.021a8.295 8.295 0 001.69 1.544 8.732 8.732 0 003.645 1.456c.234.038.475.047.712.07.12.012.152-.023.129-.146a2.902 2.902 0 01.237-1.825c.472-.985 1.263-1.582 2.338-1.74.955-.141 1.813.131 2.525.802.109.103.205.129.352.09a6.586 6.586 0 001.638-.646c.014-.01.032-.012.085-.033a3.097 3.097 0 01-1.26 1.626c.137.027.545-.047.826-.134.27-.086.539-.162.797-.276.035.038.003.059-.012.08-.343.483-.735.92-1.204 1.282-.065.05-.126.106-.193.153-.05.035-.053.079-.05.129a8.717 8.717 0 01-.094 1.588 8.556 8.556 0 01-.392 1.57c-.147.419-.32.826-.525 1.221a8.844 8.844 0 01-1.99 2.558 8.077 8.077 0 01-2.984 1.676 8.65 8.65 0 01-2.136.38 9.411 9.411 0 01-1.679-.049 8.398 8.398 0 01-2.303-.63 10.944 10.944 0 01-1.092-.557c-.05-.02-.1-.044-.126-.108z"/></svg>