<svg width="32" height="32" xmlns="http://www.w3.org/2000/svg"><circle cx="16" cy="16" r="16" fill="#E9E9E9"/><path d="M22.836 15.91c-.003 1.183-.26 2.228-.78 3.199a6.537 6.537 0 01-2.015 2.28 6.514 6.514 0 01-2.458 1.075c-.99.205-1.98.183-2.961-.052a6.114 6.114 0 01-1.485-.572.268.268 0 00-.232-.019c-1.031.331-2.062.66-3.093.987-.117.039-.232.074-.35.118-.082.03-.087 0-.066-.068l.359-1.061c.257-.769.514-1.537.776-2.303.036-.1-.016-.166-.057-.238a6.377 6.377 0 01-.695-1.785 6.526 6.526 0 01.32-3.973 6.496 6.496 0 011.28-2.002 6.598 6.598 0 012.486-1.681 6.48 6.48 0 012.77-.424 6.394 6.394 0 013.532 1.299c1.348 1.017 2.196 2.354 2.535 4.014.09.423.123.853.134 1.205zm-6.658-5.412a4.724 4.724 0 00-1.198.134c-1.777.451-3.054 1.512-3.806 3.183-.435.965-.553 1.985-.388 3.03a5.36 5.36 0 00.913 2.272c.052.076.06.142.03.227-.202.593-.4 1.19-.599 1.785-.01.033-.044.072-.014.102.03.032.069-.003.102-.014.598-.191 1.197-.38 1.79-.58.137-.046.236-.024.353.047 1.343.806 2.779 1.02 4.29.618 1.149-.304 2.095-.93 2.844-1.854a5.368 5.368 0 001.212-3.06 5.394 5.394 0 00-.424-2.546 5.455 5.455 0 00-2.054-2.455 5.298 5.298 0 00-3.051-.889z"/><path d="M12.913 14.403c.01-.615.252-1.121.722-1.515a.566.566 0 01.473-.129.932.932 0 00.23.014c.185-.014.292.09.35.244.175.459.344.92.516 1.38a.294.294 0 01-.016.25c-.107.22-.276.393-.446.565-.148.15-.156.2-.055.383.49.886 1.165 1.575 2.1 1.993.047.02.088.052.132.071.117.058.224.052.322-.049a8.29 8.29 0 00.542-.615c.134-.167.197-.191.385-.107.46.214.897.462 1.343.703.148.08.164.189.142.388-.09.813-.71 1.182-1.419 1.3a1.455 1.455 0 01-.686-.055c-.657-.208-1.302-.449-1.882-.826a6.178 6.178 0 01-1.413-1.294 9.402 9.402 0 01-1.042-1.566c-.164-.32-.298-.818-.298-1.135z"/></svg>