<svg width="32" height="32" xmlns="http://www.w3.org/2000/svg"><circle cx="16" cy="16" r="16" fill="#E9E9E9"/><path d="M16.01 11.029c.622 0 1.24-.01 1.86.003.788.016 1.575.046 2.36.082.325.016.656.024.979.087.768.148 1.225.621 1.436 1.367.112.397.153.804.188 1.212.096 1.096.077 2.193.05 3.29-.017.647-.044 1.3-.208 1.935-.069.26-.148.52-.298.747-.274.413-.668.648-1.149.735-.413.077-.831.085-1.25.104-.773.036-1.547.052-2.321.071-.916.025-1.832.02-2.745.011a75.479 75.479 0 01-2.226-.054c-.626-.025-1.255-.036-1.873-.156a1.853 1.853 0 01-.908-.443c-.246-.225-.372-.514-.465-.82-.2-.657-.213-1.335-.254-2.013-.047-.793-.033-1.586-.014-2.376.017-.668.047-1.337.186-1.994.082-.388.194-.774.476-1.072.347-.366.79-.541 1.29-.576a63.99 63.99 0 011.8-.094 58.212 58.212 0 013.087-.046zm2.273 4.681c-.01-.033-.04-.038-.063-.049-.642-.339-1.288-.678-1.933-1.017-.511-.268-1.023-.539-1.534-.81-.142-.073-.145-.07-.145.094v3.606c-.003.071.025.093.09.058l.241-.132 3.235-1.676c.038-.022.087-.03.11-.074z"/></svg>